<svg xmlns="http://www.w3.org/2000/svg" width="312" height="312" viewBox="0 0 312 312">
  <defs>
    <style>
      .a {
        fill: #fff;
      }

      .b {
        fill: #b3b3b3;
      }

      .c {
        fill: #e6e6e6;
      }

      .d {
        fill: #ccc;
      }

      .e {
        fill: gray;
      }

      .f {
        fill: #f7f11e;
      }

      .g {
        fill: #6bff1d;
      }

      .h {
        fill: #ffaa19;
      }
    </style>
  </defs>
  <title>payment</title>
  <rect class="a" width="312" height="312"/>
  <path class="b" d="M208.18,153.16a12,12,0,1,1,.7-20A51.32,51.32,0,0,1,223.14,135L237,56.2a16,16,0,0,0-13-18.54L58.6,8.5a16,16,0,0,0-18.54,13L23.57,115a16,16,0,0,0,13,18.54L202,162.74a16,16,0,0,0,16.88-8.22A31.58,31.58,0,0,0,208.18,153.16Z"/>
  <path class="c" d="M202.35,137.69a48.15,48.15,0,0,0-7.83,2.26,8,8,0,0,0,5.55,10.75,36.17,36.17,0,0,1,4.36-1.19Z"/>
  <path class="d" d="M182.7,163.4l-12.81-2.26a47.77,47.77,0,0,0-5.5,32l3.48,19.71,11.82-2.08L176.21,191A35.87,35.87,0,0,1,182.7,163.4Z"/>
  <rect class="e" x="35.86" y="42.1" width="200" height="24" transform="translate(11.46 -22.77) rotate(10)"/>
  <rect class="a" x="46.77" y="73.31" width="84" height="12" transform="matrix(0.98, 0.17, -0.17, 0.98, 15.12, -14.21)"/>
  <rect class="a" x="43.29" y="93.01" width="84" height="12" transform="matrix(0.98, 0.17, -0.17, 0.98, 18.49, -13.31)"/>
  <path class="f" d="M180.2,102.06a16,16,0,0,0,3.74,13.34,16,16,0,1,1,4.34-24.59A15.93,15.93,0,0,0,180.2,102.06Z"/>
  <path class="g" d="M192,104.15a15.93,15.93,0,0,1-8.08,11.25,16,16,0,0,1,4.34-24.59A15.93,15.93,0,0,1,192,104.15Z"/>
  <path class="h" d="M211.72,107.62a16,16,0,0,1-27.78,7.78,16,16,0,0,0,4.34-24.59A16,16,0,0,1,211.72,107.62Z"/>
  <path class="c" d="M202.35,137.69A48,48,0,0,1,257,176.78l3.48,19.71-11.82,2.08-3.48-19.71a36.28,36.28,0,0,0-40.72-29.35Z"/>
  <rect class="f" x="163.12" y="213.11" width="60" height="90" transform="translate(-41.89 37.46) rotate(-10)"/>
  <rect class="h" x="222.21" y="202.69" width="60" height="90" transform="translate(-39.18 47.56) rotate(-10)"/>
  <path d="M232.22,238a12,12,0,1,0-14.34,13.81l0.2,21.17,15.76-2.78-7.06-20A12,12,0,0,0,232.22,238Z"/>
</svg>
