<?xml version="1.0" encoding="utf-8"?><svg width="240" height="208" viewBox="0 0 240 208" xmlns="http://www.w3.org/2000/svg" xmlns:xlink="http://www.w3.org/1999/xlink"><svg id="lang_fr" viewBox="0 0 600 400" width="48" height="32" xmlns="http://www.w3.org/2000/svg"><style>.ast0{fill:#c1272d}.ast1{fill:#fff}.ast2{fill:#1b14b4}</style><title>lang_fr</title><path id="ared" class="ast0" d="M397 10h193v380H397z"/><path id="awhite" class="ast1" d="M203 10h194v380H203z"/><path id="ablue" class="ast2" d="M10 10h193v380H10z"/></svg><svg id="lang_uk" viewBox="0 0 600 400" width="48" height="32" x="48" y="32" xmlns="http://www.w3.org/2000/svg"><style>.bst0{display:none}.bst1{fill:#fff}.bst2{fill:#c1272d}.bst3{fill:#1b14b4}</style><title>lang_uk</title><path id="bcontour" class="bst0" d="M590 10v380H10V10h580m10-10H0v400h600V0z"/><g id="bwhite"><path class="bst1" d="M590 10v34.5L446 144h-50zM550 10L356 144v-13.8L530 10zM10 390v-34.5L154 256h50zM50 390l194-134v13.8L70 390zM590 390v-34.5L446 256h-50zM550 390L356 256v13.8L530 390zM10 10v34.5L154 144h50zM50 10l194 134v-13.8L70 10z"/><path class="bst1" d="M244 10v134H10v22h256V10h-22zM10 234v22h234v134h22V234H10zm346-90V10h-22v156h256v-22H356zm-22 90v156h22V256h234v-22H334z"/></g><g id="bred"><path class="bst2" d="M590 390L396 256h-40l194 134zM10 390l194-134h40L50 390zM10 10l194 134h40L50 10zM590 10L396 144h-40L550 10z"/><path class="bst2" d="M266 390V234H10v-68h256V10h68v156h256v68H334v156z"/></g><g id="bblue"><path class="bst3" d="M10 355.5V256h144zM70 390l174-120.2V390zM530 390L356 269.8V390zM590 355.5V256H446zM70 10l174 120.2V10zM10 44.5V144h144zM530 10L356 130.2V10zM590 44.5V144H446z"/></g></svg><svg width="48" height="48" viewBox="0 0 312 312" id="payment" x="96" y="64" xmlns="http://www.w3.org/2000/svg"><defs><style>.ca{fill:#fff}.cb{fill:#b3b3b3}.cc{fill:#e6e6e6}.cd{fill:#ccc}.ce{fill:gray}.cf{fill:#f7f11e}.cg{fill:#6bff1d}.ch{fill:#ffaa19}</style></defs><title>payment</title><path class="ca" d="M0 0h312v312H0z"/><path class="cb" d="M208.18 153.16a12 12 0 1 1 .7-20 51.32 51.32 0 0 1 14.26 1.84L237 56.2a16 16 0 0 0-13-18.54L58.6 8.5a16 16 0 0 0-18.54 13L23.57 115a16 16 0 0 0 13 18.54L202 162.74a16 16 0 0 0 16.88-8.22 31.58 31.58 0 0 0-10.7-1.36z"/><path class="cc" d="M202.35 137.69a48.15 48.15 0 0 0-7.83 2.26 8 8 0 0 0 5.55 10.75 36.17 36.17 0 0 1 4.36-1.19z"/><path class="cd" d="M182.7 163.4l-12.81-2.26a47.77 47.77 0 0 0-5.5 32l3.48 19.71 11.82-2.08-3.48-19.77a35.87 35.87 0 0 1 6.49-27.6z"/><path class="ce" d="M39.465 24.917l196.961 34.73-4.167 23.635-196.962-34.73z"/><path class="ca" d="M48.492 65.585l82.32 14.28-2.04 11.76-82.32-14.28zM45.102 85.2l82.32 14.28-2.04 11.76-82.32-14.28z"/><path class="cf" d="M180.2 102.06a16 16 0 0 0 3.74 13.34 16 16 0 1 1 4.34-24.59 15.93 15.93 0 0 0-8.08 11.25z"/><path class="cg" d="M192 104.15a15.93 15.93 0 0 1-8.08 11.25 16 16 0 0 1 4.34-24.59 15.93 15.93 0 0 1 3.74 13.34z"/><path class="ch" d="M211.72 107.62a16 16 0 0 1-27.78 7.78 16 16 0 0 0 4.34-24.59 16 16 0 0 1 23.44 16.81z"/><path class="cc" d="M202.35 137.69A48 48 0 0 1 257 176.78l3.48 19.71-11.82 2.08-3.48-19.71a36.28 36.28 0 0 0-40.72-29.35z"/><path class="cf" d="M155.758 219.007l59.088-10.419 15.629 88.633-59.089 10.419z"/><path class="ch" d="M214.85 208.584l59.09-10.419 15.628 88.633-59.089 10.419z"/><path d="M232.22 238a12 12 0 1 0-14.34 13.81l.2 21.17 15.76-2.78-7.06-20a12 12 0 0 0 5.44-12.2z"/></svg><svg width="48" height="48" viewBox="0 0 312 312" id="shipping" x="144" y="112" xmlns="http://www.w3.org/2000/svg"><defs><style>.da{fill:#fff}.db{fill:#8517e5}.dc{fill:#9f19ff}.dd{fill:#999}.de{fill:#ffaa19}.df{fill:gray}.dg{fill:#e59117}.dh{fill:#666}.di{fill:#998675}.dj{fill:#c7b299}</style></defs><title>fastshipping</title><path class="da" d="M0 0h312v312H0z"/><path class="db" d="M266 120h12a82.15 82.15 0 0 0-9.24-34.73l-10.3 5.82-4-7 10.3-6a84.46 84.46 0 0 0-25.24-25.26l-5.95 10.29-6.93-4 5.89-10.31A81.31 81.31 0 0 0 198 39.6V52h-4v6.63c2 0 4.06 34.33 4.06 52v1.56a12.06 12.06 0 0 1 7.32 7.31c15.09 0 43.7 1.81 43.7 4s-28.66 4-43.76 4a12.29 12.29 0 0 1-11.36 8V160a21 21 0 0 1 12.15 12.55 204.94 204.94 0 0 1 8.8 32.35 83.78 83.78 0 0 0 17.64-6.71l-5.94-10.3 6.93-4 5.95 10.3a84.41 84.41 0 0 0 25.24-25.24L254.48 163l4-6.93 10.3 6.2A84 84 0 0 0 278 128h-12v-8z"/><path class="dc" d="M182.06 123.5a12 12 0 0 1 8-11.3c0-.5-.05-1-.05-1.56 0-17.67 2-52 4-52V52h-4V39.6a85.09 85.09 0 0 0-34.47 9.24l5.93 10.3-6.91 4-5.94-10.3a83.93 83.93 0 0 0-15.46 12.92c10.55 3.33 18.46 10.12 21.53 19.12l.31.79v.83c0 4.8-.32 9.67-.79 14.49a7.16 7.16 0 0 1-1.3 10.92c-2.23 12.26-5.91 22.21-10.91 29.49l1.28.36c11.83 3.34 24.13 8.12 34 12 5.94 2.31 11 4.3 14.76 5.5.68.22.92.47 1.92.75V135.5a11.72 11.72 0 0 1-11.9-12z"/><path class="dc" d="M183.13 0C180.36 0 178 1.74 178 4.5v6c0 2.76 2.36 5.5 5.13 5.5H186v8h-4v4.25a96.68 96.68 0 0 0-62.89 35.27 52.26 52.26 0 0 1 9.52 1.1A87.64 87.64 0 0 1 194 35.5V0h-10.87z"/><path class="db" d="M267.41 61.53l2.64-2.64-2.83-2.83 2.83-2.83 2.12 2.12a5 5 0 0 0 7.07 0l1.41-1.41a5 5 0 0 0 0-7.07l-4.95-4.95-4.94-4.92a5 5 0 0 0-7.07 0l-1.41 1.41a5 5 0 0 0 0 7.07l2.12 2.12-2.83 2.83-2.83-2.83-2.64 2.64q3 2.57 5.86 5.39A95 95 0 0 0 206 28.25V24h-4v-8h3.13c2.76 0 4.88-2.74 4.88-5.5v-6c0-2.76-2.11-4.5-4.87-4.5H194v35.5a88 88 0 0 1 21.68 173.33c.45 2.59.89 5.24 1.27 7.93a96 96 0 0 0 50.46-155.23z"/><g><path class="dd" d="M118 107.5a150.6 150.6 0 0 0-30 3c3.65 20.73 13 40 30 40v-43z"/><path class="de" d="M118 100.93a153.81 153.81 0 0 0-31.52 3.19 2 2 0 0 0-1.48 2.36 2 2 0 0 0 2 1.6 1.5 1.5 0 0 0 .35 0 155.26 155.26 0 0 1 30.72-3.1v-4zM118 91.5c-8 0-14-3.13-14-7s6-7 14-7v-9c-14 0-27.87 6-31.94 18a142.32 142.32 0 0 0 .77 15A163.22 163.22 0 0 1 118 98.43V91.5z"/><path class="df" d="M118 107.5a150.6 150.6 0 0 1 30 3c-3.65 20.73-13 40-30 40v-43z"/><path class="dg" d="M118 100.93a161.22 161.22 0 0 1 31.52 3.19 2 2 0 0 1 1.52 2.36 2 2 0 0 1-2 1.6 1.5 1.5 0 0 1-.35 0 155.26 155.26 0 0 0-30.72-3.1v-4zM118 91.5c8 0 14-3.13 14-7s-6-7-14-7v-9c14 0 27.87 6 31.94 18a142.32 142.32 0 0 1-.77 15A163.22 163.22 0 0 0 118 98.43V91.5z"/><path class="dh" d="M141.88 146.57C134.09 156.1 125 158.5 118 158.5v.5h59.08c-10.25-4-22.97-9-35.2-12.43zM142.45 307.5c6.62 6.62 24.68 4.69 41-3.5h-42.9a6.15 6.15 0 0 0 1.9 3.5zM214.11 263.5c0-29-7-74.37-12.57-89.22A17.11 17.11 0 0 0 193 165v133.32c11.92-8.38 21.11-20.32 21.11-34.82z"/><path class="df" d="M94.18 146.57C102 156.1 111 158.5 118 158.5v.5H59c10.27-4 22.94-9 35.18-12.43zM93.66 307.5C87 314.12 69 312 52.65 304h42.9a6.85 6.85 0 0 1-1.89 3.5zM21.95 263.5c0-29 7-74.37 12.55-89.22A16.69 16.69 0 0 1 43 165v133.32C31 289.94 21.95 278 21.95 263.5z"/><path class="di" d="M124 163v24h-6v113h71V163h-65z"/><path class="dj" d="M112 187v-24H47v137h71V187h-6z"/><path class="da" d="M64 265l-8 10h5v16h6v-16h5l-8-10zM84 265l-8 10h5v16h6v-16h5l-8-10zM137 179h2v16h-2zM141 179h6v16h-6zM150 179h2v16h-2zM154 179h2v16h-2zM158 179h4v16h-4zM164 179h2v16h-2zM169 179h3v16h-3zM174 179h2v16h-2z"/></g></svg><svg width="48" height="48" viewBox="0 0 312 312" id="thumbup" x="192" y="160" xmlns="http://www.w3.org/2000/svg"><defs><style>.ea{fill:#fff}.eb{fill:#666}.ec{fill:#2e3192}.ed{fill:#3e48c1}</style></defs><title>thumbup</title><path class="ea" d="M0 0h312v312H0z"/><path class="eb" d="M182.27 18.06c8.8.38 14.68 2.57 17.5 6.52A46.41 46.41 0 0 1 205.28 50a75.72 75.72 0 0 1-8.87 29.75 87.56 87.56 0 0 0-10.27 34.31l-.56 6.52h76.78A20.52 20.52 0 0 1 282 140.05a33.22 33.22 0 0 1-4.23 13.34l-.16.28-.13.3c-.76 1.75-2.75 5.81-5 5.81h-13l8.4 9.88a20.93 20.93 0 0 1 4.07 7.42v.2a30.27 30.27 0 0 1 1.66 9.27 25.78 25.78 0 0 1-8.49 19.31l-3.55 3.21 2.34 4.17a21.92 21.92 0 0 1 2.79 10.92 28.1 28.1 0 0 1-2.89 12.13l-.06.11-.05.12a16.38 16.38 0 0 1-6.92 7.61l-3.69 2.07.72 4.17a62.89 62.89 0 0 1 .91 10.18c0 9.42-2.46 16.14-7.51 20.56-5.22 4.56-13.54 6.88-24.73 6.88h-24.14c-16.67 0-38.87-4.81-66-14.29l-5.77-2.09-7.06-2.5h-.12l-7-2.3c-3.3-1.07-5.94-1.83-8.08-2.33s-4.39-.94-6.9-1.37l-3-.53V145.39a23.1 23.1 0 0 0 5.47-1.92 39.71 39.71 0 0 0 9.32-6.13c2.77-2.47 5.41-4.93 7.86-7.3a119.82 119.82 0 0 0 8.34-9.23c2.92-3.53 5.26-6.44 7-8.62l6.26-8.21 4.57-5.94c7.12-8.89 12.15-14.87 14.94-17.78a57.16 57.16 0 0 0 13.25-24.44c2.46-8.9 4.51-17.45 6.1-25.42v-.36a27.19 27.19 0 0 1 4.55-11.77M179.36 12a33.26 33.26 0 0 0-7.58 17q-2.35 11.82-6 25a51 51 0 0 1-11.9 22q-4.39 4.58-15.33 18.23l-4.6 6-6.28 8.23q-2.51 3.23-6.85 8.49a113.61 113.61 0 0 1-8 8.8q-3.61 3.49-7.69 7.13a33.65 33.65 0 0 1-8 5.21 17 17 0 0 1-7.06 1.82h-1.68V267.6l8 1.41q3.66.62 6.59 1.3t7.58 2.19l7 2.29 7.06 2.5 5.75 2.08q41.85 14.63 68 14.63h24.27q38.24 0 38.24-33.43a68.8 68.8 0 0 0-1-11.2 22.27 22.27 0 0 0 9.45-10.37 33.94 33.94 0 0 0 3.5-14.74 27.87 27.87 0 0 0-3.56-13.9 31.76 31.76 0 0 0 10.46-23.85 36.31 36.31 0 0 0-2-11.14 27 27 0 0 0-5.23-9.53q6.38 0 10.46-9.43a39.46 39.46 0 0 0 5-16.14 26.46 26.46 0 0 0-25.53-25.62h-70.31a82.07 82.07 0 0 1 9.57-32 82.17 82.17 0 0 0 9.57-32.13 52.51 52.51 0 0 0-6.38-29.06Q198.5 12 179.36 12z"/><path class="ec" d="M16 204v56a12 12 0 0 0 12 12h52v-68H16z"/><path class="ed" d="M80 204v-68H28a12 12 0 0 0-12 12v56h64z"/><circle class="ea" cx="35" cy="253" r="9"/></svg></svg>